<svg width="19" height="20" viewBox="0 0 19 20" fill="none" xmlns="http://www.w3.org/2000/svg">
<path d="M16.9908 0H7.00979C5.89879 0 4.99979 0.899 4.99979 2.01V7.647L0.297786 12.289C0.156901 12.4283 0.060587 12.6064 0.0210674 12.8006C-0.0184521 12.9947 0.000604264 13.1963 0.0758181 13.3796C0.151032 13.5629 0.279012 13.7197 0.443518 13.8302C0.608023 13.9407 0.801636 13.9998 0.999786 14V19C0.999786 19.2652 1.10514 19.5196 1.29268 19.7071C1.48022 19.8946 1.73457 20 1.99979 20H17.9998C18.265 20 18.5194 19.8946 18.7069 19.7071C18.8944 19.5196 18.9998 19.2652 18.9998 19V2.009C18.9998 0.899 18.1018 0 16.9908 0ZM8.92179 13.111V18H2.99979V12.432L5.98679 9.483L8.92179 12.486V13.111ZM10.9998 7H8.99979V5H10.9998V7ZM14.9998 15H12.9998V13H14.9998V15ZM14.9998 11H12.9998V9H14.9998V11ZM14.9998 7H12.9998V5H14.9998V7Z" fill="#69CCF7"/>
</svg>
